<svg id="ltco" xmlns="http://www.w3.org/2000/svg" viewBox="0 0 252 87"><defs><style>.cls-1{fill:#1818e8;}.cls-2{fill:#FAFAFA;}</style></defs><title>ltco</title><rect id="rectangle" class="cls-1" width="252" height="87"/><g id="letter"><path class="cls-2" d="M24.89,57.41h8.2v-27h-8.2v-5h14.6v32h8.25v5H24.89Z"/><path class="cls-2" d="M68,62.41q-3.69,0-5.45-1.95a7.35,7.35,0,0,1-1.75-5.07V41.61h-7.5v-5h5.1a3.14,3.14,0,0,0,2.2-.62,3,3,0,0,0,.65-2.23V27.51h5.95v9.1h10.5v5H67.24v15.8h10.5v5Z"/><path class="cls-2" d="M97.29,63a14.14,14.14,0,0,1-5.3-.95,10.86,10.86,0,0,1-4-2.7,11.73,11.73,0,0,1-2.5-4.25,18.26,18.26,0,0,1,0-11.2A11.9,11.9,0,0,1,88,39.66,11.12,11.12,0,0,1,92,37a13.91,13.91,0,0,1,5.27-1,11.53,11.53,0,0,1,6.6,1.7,10.88,10.88,0,0,1,3.8,4.5l-5,2.7a6.62,6.62,0,0,0-2-2.67,5.37,5.37,0,0,0-3.48-1,5.64,5.64,0,0,0-4.37,1.65,6.36,6.36,0,0,0-1.53,4.5v4.3a6.39,6.39,0,0,0,1.53,4.48,5.76,5.76,0,0,0,4.47,1.67A5.91,5.91,0,0,0,101,56.76a7.62,7.62,0,0,0,2.22-2.8l4.8,2.85a10.72,10.72,0,0,1-3.92,4.48A12.24,12.24,0,0,1,97.29,63Z"/><path class="cls-2" d="M126.29,63a13.91,13.91,0,0,1-5.27-.95,10.86,10.86,0,0,1-4-2.7,11.73,11.73,0,0,1-2.5-4.25,18.26,18.26,0,0,1,0-11.2,11.9,11.9,0,0,1,2.5-4.25,11.12,11.12,0,0,1,4-2.7,15,15,0,0,1,10.52,0,11.15,11.15,0,0,1,4,2.7,12.2,12.2,0,0,1,2.5,4.25,18.46,18.46,0,0,1,0,11.2,12,12,0,0,1-2.5,4.25,10.9,10.9,0,0,1-4,2.7A13.91,13.91,0,0,1,126.29,63Zm0-4.9a5.73,5.73,0,0,0,4.35-1.67,6.87,6.87,0,0,0,1.6-4.93v-4a6.84,6.84,0,0,0-1.6-4.92,6.47,6.47,0,0,0-8.7,0,6.89,6.89,0,0,0-1.6,4.92v4a6.91,6.91,0,0,0,1.6,4.93A5.76,5.76,0,0,0,126.29,58.11Z"/><path class="cls-2" d="M156.29,63a5.13,5.13,0,0,1-3.7-1.1,3.67,3.67,0,0,1-1.1-2.7v-1.5a3.71,3.71,0,0,1,1.1-2.7,6.77,6.77,0,0,1,7.4,0,3.71,3.71,0,0,1,1.1,2.7v1.5a3.67,3.67,0,0,1-1.1,2.7A5.13,5.13,0,0,1,156.29,63Z"/><path class="cls-2" d="M175.19,69.31l16.45-44.9h5.75l-16.45,44.9Z"/><path class="cls-2" d="M205.54,55.86l15.7-8.5V47l-15.7-8.5v-6.1L227,44.16v6L205.54,62Z"/></g></svg>
